<svg width="70" height="24" viewBox="0 0 70 24" fill="none" xmlns="http://www.w3.org/2000/svg">
<path fill-rule="evenodd" clip-rule="evenodd" d="M24.5659 17.4389C18.9964 13.3403 18.1271 13.6675 7.12695 24C17.4594 12.9999 17.7866 12.1339 13.688 6.56108C19.2575 10.6597 20.1268 10.3325 31.1269 0C20.7945 11.0001 20.4673 11.8661 24.5659 17.4389ZM66.2694 17.3761C65.6546 17.3761 65.182 17.2076 64.8514 16.8704C64.5209 16.5333 64.3556 16.0705 64.3556 15.4855L64.3556 8.14436L61.123 8.14436V6.62721H64.3556V2.80295L66.0909 2.80295V6.62721H69.6078V8.14436H66.0909L66.0909 15.2244C66.0909 15.664 66.3025 15.8854 66.7289 15.8854H69.1252V17.3794H66.2661L66.2694 17.3761ZM3.50459 16.9894C4.32762 17.4522 5.27956 17.6835 6.3637 17.6835L6.35709 17.6703C7.32555 17.6703 8.11883 17.515 8.74354 17.2076C9.36825 16.9002 9.87065 16.5168 10.2607 16.0639C10.6474 15.6111 10.9515 15.155 11.173 14.7021L9.67895 13.9783C9.41452 14.5633 9.03441 15.069 8.5353 15.4954C8.0362 15.9218 7.32555 16.1333 6.40337 16.1333C5.34896 16.1333 4.46975 15.8061 3.76572 15.155C3.06168 14.5038 2.68818 13.5982 2.64521 12.4413L11.4175 12.4413V11.6513C11.4175 10.5672 11.1961 9.62185 10.7565 8.81535C10.3169 8.00885 9.70869 7.39075 8.93194 6.95776C8.15519 6.52476 7.2925 6.3099 6.25132 6.3099C5.21014 6.3099 4.28796 6.54128 3.48146 7.00402C2.67496 7.46677 2.04364 8.11462 1.59081 8.95087C1.13798 9.78712 0.909912 10.7622 0.909912 11.8761L0.909912 12.1405C0.909912 13.2412 1.13798 14.2063 1.59081 15.0426C2.04694 15.8788 2.68487 16.5267 3.50459 16.9894ZM9.66242 11.0233L2.67165 11.0233H2.66834C2.81709 10.0284 3.20381 9.25165 3.83512 8.69305C4.46644 8.13445 5.28617 7.8568 6.25463 7.8568C7.22309 7.8568 8.01637 8.13776 8.64108 8.69305C9.26247 9.25165 9.60292 10.0284 9.66242 11.0233ZM27.6003 6.62732L27.6003 21.7723L27.6036 21.7756H29.3389V15.6872H29.6463C29.8215 16.0111 30.0694 16.3251 30.3933 16.6325C30.7173 16.9399 31.137 17.1911 31.6593 17.3895C32.1782 17.5878 32.8128 17.6869 33.5598 17.6869C34.4986 17.6869 35.3546 17.4655 36.1215 17.0259C36.8883 16.5863 37.5031 15.9483 37.9559 15.1121C38.4088 14.2758 38.6368 13.2875 38.6368 12.1439V11.8596C38.6368 10.7028 38.4055 9.71118 37.9427 8.89146C37.48 8.07174 36.8652 7.43711 36.095 6.99089C35.3249 6.54468 34.4787 6.31991 33.5565 6.31991C32.4426 6.31991 31.5733 6.53146 30.9519 6.95785C30.3272 7.38424 29.8777 7.86681 29.6001 8.40888H29.2927V6.62732H27.6003ZM35.8108 15.0757C35.1167 15.7897 34.211 16.1434 33.0971 16.1434C31.9997 16.1434 31.0941 15.7864 30.3834 15.0757C29.6728 14.3651 29.3158 13.3735 29.3158 12.0976V11.8993C29.3158 10.6235 29.6728 9.63185 30.3834 8.92121C31.0941 8.21056 31.9832 7.85359 33.0971 7.85359C34.211 7.85359 35.1133 8.21056 35.8108 8.92121C36.5082 9.63185 36.8553 10.6235 36.8553 11.8993V12.0976C36.8553 13.3735 36.5049 14.3651 35.8108 15.0757ZM46.1733 17.6835C45.0891 17.6835 44.1372 17.4522 43.3142 16.9894C42.4944 16.5267 41.8565 15.8788 41.4004 15.0426C40.9475 14.2063 40.7195 13.2412 40.7195 12.1405V11.8761C40.7195 10.7622 40.9475 9.78712 41.4004 8.95087C41.8532 8.11462 42.4845 7.46677 43.291 7.00402C44.0975 6.54128 45.0197 6.3099 46.0609 6.3099C47.1021 6.3099 47.9648 6.52476 48.7415 6.95776C49.5182 7.39075 50.1264 8.00885 50.566 8.81535C51.0056 9.62185 51.2271 10.5672 51.2271 11.6513V12.4413L42.4548 12.4413C42.4977 13.5982 42.8712 14.5038 43.5753 15.155C44.2793 15.8061 45.1585 16.1333 46.2129 16.1333C47.1351 16.1333 47.8458 15.9218 48.3449 15.4954C48.844 15.069 49.2241 14.5633 49.4885 13.9783L50.9825 14.7021C50.7611 15.155 50.457 15.6111 50.0702 16.0639C49.6802 16.5168 49.1778 16.9002 48.5531 17.2076C47.9284 17.515 47.1351 17.6703 46.1666 17.6703L46.1733 17.6835ZM42.4812 11.0233H49.472C49.4125 10.0284 49.072 9.25165 48.4506 8.69305C47.8259 8.13776 47.0326 7.8568 46.0642 7.8568C45.0957 7.8568 44.276 8.13445 43.6447 8.69305C43.0134 9.25165 42.6266 10.0284 42.4779 11.0233H42.4812ZM53.7851 6.6273L53.7851 17.3762H55.5204L55.5204 10.8251C55.5204 9.9161 55.7584 9.24512 56.2344 8.81212C56.7104 8.37912 57.3384 8.16428 58.1151 8.16428H59.5001V6.58102L58.2242 6.58102C57.5797 6.58102 57.0607 6.6901 56.6641 6.91155C56.2674 7.13301 55.9766 7.47677 55.7849 7.94612H55.4775V6.6273H53.7851Z" fill="#334155"/>
</svg>